<svg xmlns="http://www.w3.org/2000/svg" viewBox="0 0 2543.57 2169.78"><defs><style>.cls-1{fill:#d42c6a;}.cls-1,.cls-2,.cls-3,.cls-4,.cls-5{stroke:#182447;stroke-linecap:round;stroke-linejoin:round;}.cls-1,.cls-2,.cls-5{stroke-width:48px;}.cls-2,.cls-3{fill:#d46180;}.cls-3{stroke-width:32.93px;}.cls-4,.cls-5{fill:#fbe9ef;}.cls-4{stroke-width:48.86px;}</style></defs><g id="レイヤー_2" data-name="レイヤー 2"><g id="レイヤー_1-2" data-name="レイヤー 1"><polyline class="cls-1" points="1271.57 2145.78 729.27 951.21 24.43 708.87 1271.57 2145.78"/><polyline class="cls-2" points="1277.06 2145.78 729.34 951.22 1811.3 948.31 1277.06 2145.78"/><path class="cls-3" d="M24.43,707.91s110.12,72.67,321.31,134S729.3,951.21,729.3,951.21L473.68,205.11Z"/><polygon class="cls-1" points="729.32 951.19 1260.92 391.19 474.63 204.03 729.32 951.19"/><polygon class="cls-4" points="24.43 707.91 435.13 170.77 473.76 205.37 24.43 707.91"/><path class="cls-2" d="M1263.22,390.62,729.34,951.21S1073.83,1012,1266.15,1012s545.46-64.33,545.46-64.33Z"/><polygon class="cls-1" points="1811.79 947.55 1241.31 395.41 2037.44 232.68 1811.79 947.55"/><polyline class="cls-1" points="1272.43 2145.78 1811.3 948.31 2519.57 708.87 1272.43 2145.78"/><path class="cls-2" d="M2517.18,708.31s-110.12,72.66-321.32,134-384.25,105.4-384.25,105.4l256.31-742.18Z"/><polygon class="cls-4" points="2517.4 695.03 2093.76 161.31 2089.41 222.25 2517.4 695.03"/><path class="cls-5" d="M2104.07,182.59c0,87.58-385.12,201.34-846.6,201.34S432.88,270.17,432.88,182.59,807,24,1268.48,24,2104.07,95,2104.07,182.59Z"/></g></g></svg>