<svg width="297" height="229" viewBox="0 0 297 229" fill="none" xmlns="http://www.w3.org/2000/svg">
<g clip-path="url(#clip0_9_81)">
<path d="M246.856 3.47266H50.1437L4.44336 69.4866L148.504 223.904L292.557 69.4866L246.856 3.47266Z" fill="#FF7396"/>
<path d="M148.504 3.47266H246.856L198.674 69.4866L148.504 3.47266Z" fill="#FFA6BC"/>
<path d="M198.674 69.4866L246.856 3.47266L292.556 69.4866H198.674Z" fill="#F23D6A"/>
<path d="M148.504 223.904L198.674 69.4863H292.557L148.504 223.904Z" fill="#E52253"/>
<path d="M98.5603 69.4863L148.504 223.904L4.44336 69.4863H98.5603Z" fill="#F23D6A"/>
<path d="M98.5601 69.4866L148.504 3.47266L198.439 69.4866H98.5601Z" fill="#F23D6A"/>
<path d="M50.1436 3.47266L98.3259 69.4866L146.647 3.47266H50.1436Z" fill="#FFE0E8"/>
<path d="M144.842 220.318C155.647 206.333 167.05 192.894 178.636 179.646C190.221 166.398 202.067 153.393 214.13 140.579C226.193 127.765 238.369 115.056 250.77 102.554C263.172 90.0529 275.781 77.7512 288.851 65.8837C289.13 65.6179 289.5 65.4688 289.885 65.4668C290.27 65.4648 290.641 65.6101 290.923 65.8729C291.204 66.1357 291.375 66.4963 291.4 66.8807C291.424 67.2652 291.301 67.6445 291.055 67.9412C280.121 81.8315 268.691 95.2097 257.114 108.475C245.537 121.74 233.683 134.763 221.724 147.663C209.765 160.564 197.615 173.308 185.188 185.784C172.76 198.259 160.159 210.569 147.003 222.324C146.731 222.557 146.382 222.682 146.023 222.675C145.664 222.667 145.321 222.527 145.059 222.282C144.797 222.037 144.634 221.704 144.602 221.346C144.57 220.989 144.671 220.632 144.885 220.344L144.842 220.318Z" fill="#FF7396"/>
<path d="M144.105 8.39487C136.494 9.32379 128.883 9.86204 121.272 10.4003C113.661 10.9385 106.041 11.2684 98.4303 11.5376C90.8194 11.8067 83.2084 11.9977 75.5888 12.0671C67.9691 12.1366 60.3669 12.1626 52.756 12.1192L57.0083 9.89677L51.2025 18.0834L45.336 26.2266C41.3873 31.6265 37.4213 37.0177 33.3771 42.3568C29.333 47.6959 25.2542 53.009 21.0713 58.2526C16.8883 63.4962 12.688 68.7224 8.28803 73.8185C8.17406 73.9809 8.02917 74.1193 7.86173 74.2258C7.6943 74.3323 7.50755 74.4047 7.31213 74.439C7.11671 74.4732 6.91646 74.4687 6.7228 74.4255C6.52915 74.3823 6.34588 74.3015 6.18348 74.1874C6.02108 74.0734 5.88268 73.9286 5.77625 73.7611C5.66983 73.5936 5.59746 73.4067 5.56322 73.2112C5.52897 73.0157 5.53353 72.8154 5.57667 72.6217C5.61981 72.428 5.70064 72.2446 5.8146 72.0822C9.03428 66.1701 12.4362 60.3882 15.8902 54.6324C19.3442 48.8766 22.8329 43.1815 26.4344 37.5212C30.036 31.8609 33.6549 26.2353 37.3258 20.6531L42.88 12.2928L48.5036 3.976L49.9962 1.76221H52.756C60.3669 1.76221 67.9778 1.7622 75.5888 1.81429C83.1997 1.86638 90.8194 2.1008 98.4303 2.34388C106.041 2.58696 113.652 2.99499 121.272 3.48984C128.891 3.98468 136.494 4.56633 144.105 5.48657C144.462 5.52571 144.792 5.69533 145.031 5.96287C145.271 6.23042 145.404 6.57708 145.404 6.93639C145.404 7.29569 145.271 7.64233 145.031 7.90987C144.792 8.17742 144.462 8.34703 144.105 8.38618V8.39487Z" fill="white"/>
<path d="M148.504 229L0 69.8164L48.3298 0H248.679L297.009 69.8164L148.504 229ZM8.89533 69.1653L148.504 218.817L288.113 69.1653L245.043 6.94518H51.9661L8.89533 69.1653Z" fill="#001858"/>
<path d="M292.557 66.0142H4.44336V72.9593H292.557V66.0142Z" fill="#001858"/>
<path d="M52.9752 1.50313L47.3677 5.59814L95.5437 71.6149L101.151 67.5199L52.9752 1.50313Z" fill="#001858"/>
<path d="M101.865 68.3516L95.2598 70.4897L145.207 224.908L151.812 222.769L101.865 68.3516Z" fill="#001858"/>
<path d="M195.133 68.4128L145.186 222.831L151.791 224.969L201.738 70.5509L195.133 68.4128Z" fill="#001858"/>
<path d="M145.775 1.43988L95.832 67.4517L101.368 71.643L151.311 5.6312L145.775 1.43988Z" fill="#001858"/>
<path d="M244.088 1.47801L195.901 67.4863L201.508 71.5823L249.695 5.574L244.088 1.47801Z" fill="#001858"/>
<path d="M151.244 1.31307L145.708 5.50439L195.651 71.5162L201.187 67.3249L151.244 1.31307Z" fill="#001858"/>
</g>
<defs>
<clipPath id="clip0_9_81">
<rect width="297" height="229" fill="white"/>
</clipPath>
</defs>
</svg>
